<svg xmlns="http://www.w3.org/2000/svg" xml:space="preserve" fill-rule="evenodd" stroke-linejoin="round" stroke-miterlimit="2" clip-rule="evenodd" viewBox="0 0 2500 324"><path fill="#3BB261" d="M286.522-21.517v371.476H0V-21.517h286.522Zm-8.333 8.333H8.333v354.81h269.856v-354.81ZM2055.14 349.959h-268.426V-21.517h268.426v371.476Zm-8.334-8.333v-354.81h-251.759v354.81h251.759ZM1659.28 349.959h-268.427V-21.517h268.427v371.476Zm-8.334-8.333v-354.81h-251.759v354.81h251.759ZM1203.11 349.959H934.684V-21.517h268.426v371.476Zm-8.333-8.333v-354.81h-251.76v354.81h251.76ZM2500 349.959h-268.426V-21.517H2500v371.476Zm-8.333-8.333v-354.81h-251.76v354.81h251.76Z"/></svg>
