<svg xmlns="http://www.w3.org/2000/svg" xml:space="preserve" fill-rule="evenodd" stroke-linejoin="round" stroke-miterlimit="2" clip-rule="evenodd" viewBox="0 0 2500 1564"><g fill="#3BB261"><path d="M286.522 787.182v332.517H0V64.089h424.222c66.855 0 125.919 8.797 177.191 26.391 51.273 17.593 94 42.475 128.181 74.646 34.182 32.171 60.07 70.625 77.663 115.363 17.593 44.738 26.39 94.251 26.39 148.539 0 53.283-8.671 101.917-26.013 145.9-17.342 43.984-43.104 81.684-77.286 113.101-34.181 31.417-76.531 55.797-127.05 73.139-50.518 17.342-108.953 26.013-175.306 26.013h-141.47Zm0-8.333h141.47c65.326 0 122.864-8.488 172.601-25.562 49.342-16.938 90.731-40.707 124.116-71.392 33.25-30.561 58.303-67.238 75.173-110.022 16.978-43.061 25.432-90.679 25.432-142.844 0-53.171-8.581-101.672-25.812-145.489-17.132-43.565-42.333-81.017-75.619-112.344-33.372-31.41-75.115-55.656-125.174-72.833-50.488-17.324-108.655-25.939-174.487-25.939H8.333v1038.94h269.856V787.181a8.333 8.333 0 0 1 8.333-8.333Zm0-465.976h134.684c18.498 0 35.671 2.531 51.526 7.552 16.221 5.137 30.126 12.737 41.751 22.74 11.689 10.058 20.942 22.284 27.738 36.692 6.775 14.362 10.221 30.745 10.221 49.172 0 18.428-3.446 34.81-10.221 49.173-6.816 14.45-16.1 26.572-27.824 36.388-11.601 9.712-25.478 17.164-41.665 22.29-15.855 5.02-33.028 7.551-51.526 7.551H286.522a8.333 8.333 0 0 1-8.333-8.333V321.206a8.333 8.333 0 0 1 8.333-8.333Zm0 8.333v214.892h134.684c17.594 0 33.93-2.388 49.01-7.163 15.081-4.775 28.024-11.687 38.832-20.735 10.807-9.048 19.353-20.233 25.636-33.553 6.283-13.321 9.425-28.527 9.425-45.618s-3.142-32.296-9.425-45.617c-6.283-13.321-14.829-24.631-25.636-33.93-10.808-9.3-23.751-16.337-38.832-21.112-15.08-4.776-31.416-7.164-49.01-7.164H286.522ZM1203.11 431.291c42.224-52.78 105.31-79.17 189.256-79.17 38.705 0 74.395 6.534 107.068 19.604 32.674 13.069 60.823 31.919 84.449 56.55 23.625 24.631 42.099 54.289 55.419 88.973 13.321 34.684 19.982 73.39 19.982 116.117v486.334h-268.427V717.814c0-37.701-8.294-66.227-24.882-85.58-16.588-19.353-39.711-29.029-69.368-29.029-13.07 0-25.259 2.136-36.57 6.409-11.31 4.272-21.237 11.184-29.783 20.735-8.545 9.551-15.206 21.615-19.981 36.192-4.775 14.578-7.163 32.171-7.163 52.781v400.377H934.684V32.419h268.426v398.869Zm-8.333 0V40.756h-251.76v1070.61h251.76V719.323c0-21.626 2.566-40.079 7.577-55.375 5.17-15.783 12.438-28.814 21.69-39.155 9.478-10.592 20.504-18.235 33.049-22.974 12.222-4.617 25.391-6.947 39.514-6.947 32.402 0 57.572 10.795 75.695 31.94 17.662 20.605 26.889 50.862 26.889 91.003v393.551h251.759v-478c0-41.625-6.45-79.339-19.427-113.129-12.902-33.595-30.771-62.335-53.654-86.192-22.807-23.778-49.988-41.965-81.53-54.582-31.727-12.691-66.389-19.008-103.973-19.008-80.996 0-142.008 25.118-182.749 76.043a8.333 8.333 0 0 1-14.84-5.206ZM2055.14 1119.7h-268.426V372.48h268.426v747.22Zm-8.334-8.334V380.813h-251.759v730.553h251.759ZM1920.173-.004c21.614 0 41.847 3.896 60.697 11.687 18.85 7.791 35.187 18.599 49.01 32.422 13.824 13.824 24.631 30.161 32.423 49.011 7.791 18.85 11.687 39.082 11.687 60.697 0 21.615-3.896 41.848-11.687 60.698-7.792 18.85-18.599 35.187-32.423 49.01-13.823 13.823-30.16 24.631-49.01 32.422-18.85 7.792-39.083 11.687-60.697 11.687-21.615 0-41.848-3.895-60.698-11.687-18.85-7.791-35.187-18.599-49.01-32.422-13.824-13.823-24.631-30.16-32.423-49.01-7.791-18.85-11.687-39.083-11.687-60.698 0-21.615 3.896-41.847 11.687-60.697 7.792-18.85 18.599-35.187 32.423-49.011 13.823-13.823 30.16-24.631 49.01-32.422 18.85-7.791 39.083-11.687 60.698-11.687Zm0 8.333c-20.48 0-39.654 3.673-57.515 11.055-17.805 7.36-33.244 17.557-46.301 30.614-13.057 13.057-23.254 28.496-30.613 46.301-7.382 17.861-11.055 37.034-11.055 57.514 0 20.48 3.673 39.654 11.055 57.515 7.359 17.805 17.556 33.243 30.613 46.301 13.057 13.057 28.496 23.253 46.301 30.613 17.861 7.382 37.035 11.055 57.515 11.055 20.48 0 39.653-3.673 57.514-11.055 17.805-7.36 33.244-17.556 46.301-30.614 13.057-13.057 23.254-28.495 30.613-46.301 7.383-17.86 11.055-37.034 11.055-57.514 0-20.48-3.672-39.654-11.055-57.514-7.359-17.805-17.556-33.244-30.613-46.301-13.057-13.057-28.496-23.254-46.301-30.614-17.861-7.382-37.034-11.055-57.514-11.055ZM2500 1119.7h-268.426V33.93H2500V1119.7Zm-8.333-8.334V42.266h-251.76v1069.1h251.76ZM2056.97 1297.95v265.651H940.46V1297.95h1116.51Zm-8.333 8.334H948.787l-.001 248.984h1099.85v-248.984Z"/></g></svg>
